<?xml version="1.0" standalone="no"?>
<!DOCTYPE svg PUBLIC "-//W3C//DTD SVG 20010904//EN"
 "http://www.w3.org/TR/2001/REC-SVG-20010904/DTD/svg10.dtd">
<svg version="1.0" xmlns="http://www.w3.org/2000/svg"
 width="512.000000pt" height="512.000000pt" viewBox="0 0 512.000000 512.000000"
 preserveAspectRatio="xMidYMid meet">

<g transform="translate(0.000000,512.000000) scale(0.100000,-0.100000)"
fill="#000000" stroke="none">
<path d="M665 3895 c-51 -50 -44 -65 178 -370 112 -154 203 -281 202 -283 -2
-2 -87 11 -190 27 -167 27 -190 29 -215 16 -56 -29 -60 -105 -8 -139 13 -8
140 -33 283 -56 143 -22 264 -42 268 -43 13 -4 285 -382 277 -385 -4 -1 -80 9
-170 23 -201 31 -215 31 -245 0 -32 -31 -32 -76 -2 -109 20 -23 42 -29 277
-66 140 -22 264 -42 275 -44 11 -3 55 -54 99 -116 l79 -110 105 0 c82 0 102 3
95 13 -6 6 -59 79 -118 160 l-107 148 41 262 c23 144 41 272 41 285 0 35 -43
72 -83 72 -62 0 -74 -25 -107 -230 -16 -100 -31 -184 -33 -186 -7 -8 -277 374
-277 392 0 11 19 137 41 281 40 250 41 263 25 288 -31 47 -95 55 -131 15 -11
-12 -26 -79 -46 -197 -16 -98 -30 -184 -31 -192 -2 -7 -91 108 -198 255 -107
148 -204 279 -217 292 -30 30 -77 29 -108 -3z"/>
<path d="M3610 3754 c0 -3 10 -37 21 -76 41 -134 9 -259 -88 -348 -63 -58
-113 -76 -306 -111 l-128 -23 43 -16 c24 -9 52 -22 64 -29 17 -12 27 -10 75
15 48 26 64 29 149 29 84 0 101 -3 145 -27 79 -41 165 -148 165 -203 0 -31 16
-14 34 37 25 72 103 148 181 177 82 31 178 27 256 -12 l57 -27 60 28 60 29
-122 23 c-190 36 -237 53 -299 110 -97 89 -129 214 -88 348 11 39 21 73 21 76
0 3 -67 6 -150 6 -82 0 -150 -3 -150 -6z"/>
<path d="M2649 3250 c-26 -15 -41 -62 -30 -93 14 -35 32 -43 168 -72 65 -14
127 -27 139 -30 18 -4 24 5 44 70 13 41 22 76 19 78 -8 7 -274 57 -299 57 -14
0 -32 -5 -41 -10z"/>
<path d="M2575 2925 c-41 -40 -30 -102 22 -124 28 -11 214 -51 239 -51 13 0
62 135 53 145 -7 6 -245 55 -271 55 -10 0 -30 -11 -43 -25z"/>
<path d="M3065 1423 c-131 -28 -260 -118 -336 -236 -114 -175 -114 -428 -1
-603 225 -348 718 -349 942 -2 179 276 73 655 -223 797 -128 62 -241 75 -382
44z"/>
</g>
</svg>
